<svg width="198" height="84" viewBox="0 0 198 84" fill="none" xmlns="http://www.w3.org/2000/svg">
<g filter="url(#filter0_d_3403_50218)">
<path d="M46.5459 47.6958C46.5459 48.1257 46.6681 48.4635 46.9125 48.7091C47.1569 48.9548 47.5081 49.0776 47.9663 49.0776C48.4245 49.0776 48.791 48.9548 49.0659 48.7091C49.3409 48.4635 49.4783 48.1257 49.4783 47.6958V41.0103C49.4783 40.7342 49.7022 40.5103 49.9783 40.5103H56.63C56.9061 40.5103 57.1299 40.7342 57.1299 41.0103V48.0643C57.1299 50.92 56.3052 53.177 54.6558 54.8352C53.0063 56.4934 50.7612 57.3225 47.9205 57.3225C46.6681 57.3225 45.599 57.1689 44.7132 56.8619C44.0446 56.6301 43.4717 56.3021 42.9945 55.8778C42.7558 55.6656 42.3777 55.6769 42.1513 55.9021C41.7366 56.3146 41.2466 56.6345 40.6812 56.8619C39.9176 57.1689 39.0012 57.3225 37.9321 57.3225C37.4434 57.3225 37.0005 57.2917 36.6034 57.2303C36.5116 57.2073 36.4226 57.1823 36.3366 57.1553C35.9945 57.0483 35.5979 57.2575 35.5429 57.6116C35.238 59.5725 34.5835 61.3032 33.5794 62.8037C32.4798 64.4926 30.9983 65.7823 29.135 66.6728C27.3023 67.594 25.1947 68.0546 22.8121 68.0546H20.8419C16.8405 68.0546 13.7096 66.8724 11.4492 64.5079C9.2194 62.1742 8.10449 58.9346 8.10449 54.7891V45.6164C8.10449 45.3403 8.32835 45.1164 8.60449 45.1164H15.4394C15.7155 45.1164 15.9394 45.3403 15.9394 45.6164V54.6049C15.9394 56.3552 16.3365 57.6602 17.1307 58.52C17.9554 59.3798 19.2383 59.8097 20.9794 59.8097H22.8121C23.9423 59.8097 24.9045 59.6255 25.6987 59.257C26.5234 58.8885 27.1343 58.3511 27.5314 57.6449C27.959 56.9693 28.1729 56.1556 28.1729 55.2037V41.0103C28.1729 40.7342 28.3967 40.5103 28.6729 40.5103H35.3245C35.6006 40.5103 35.8245 40.7342 35.8245 41.0103V47.7419C35.8245 48.141 35.9467 48.4635 36.191 48.7091C36.4354 48.9548 36.8172 49.0776 37.3365 49.0776C37.8558 49.0776 38.2376 48.9701 38.4819 48.7552C38.7569 48.5095 38.8943 48.1718 38.8943 47.7419V41.0103C38.8943 40.7342 39.1182 40.5103 39.3943 40.5103H46.0459C46.3221 40.5103 46.5459 40.7342 46.5459 41.0103V47.6958Z" fill="white"/>
<path d="M61.8499 28.2976C61.8499 28.0215 62.0738 27.7976 62.3499 27.7976H69.139C69.4152 27.7976 69.639 28.0215 69.639 28.2976V48.5776C69.639 48.8538 69.8629 49.0776 70.139 49.0776H72.2507C72.6783 49.0776 73.0143 48.9548 73.2587 48.7091C73.5336 48.4635 73.671 48.1257 73.671 47.6958V28.2976C73.671 28.0215 73.8949 27.7976 74.171 27.7976H81.0059C81.2821 27.7976 81.5059 28.0215 81.5059 28.2976V47.4655C81.5059 47.9875 81.6281 48.3867 81.8725 48.6631C82.1168 48.9394 82.5139 49.0776 83.0638 49.0776H84.6216C84.7743 49.0776 84.8812 49.3386 84.9423 49.8606C85.0339 50.352 85.0798 51.4728 85.0798 53.2231C85.0798 54.9734 85.0339 56.0942 84.9423 56.5855C84.8812 57.0768 84.7743 57.3225 84.6216 57.3225H83.0179C81.735 57.3225 80.6659 57.1843 79.8107 56.9079C79.1596 56.6897 78.5942 56.3568 78.1145 55.909C77.9043 55.7128 77.575 55.6953 77.3514 55.876C76.8039 56.3182 76.1881 56.6622 75.5038 56.9079C74.6485 57.1843 73.671 57.3225 72.5714 57.3225H62.3499C62.0738 57.3225 61.8499 57.0986 61.8499 56.8225V28.2976Z" fill="white"/>
<path d="M97.7603 48.2485C97.7603 51.0429 96.9356 53.2538 95.2861 54.8812C93.6672 56.5087 91.4679 57.3225 88.6883 57.3225H84.6105C84.305 57.3225 84.1523 55.956 84.1523 53.2231C84.1523 51.4728 84.1981 50.352 84.2897 49.8606C84.3814 49.3386 84.4883 49.0776 84.6105 49.0776H88.6883C89.0854 49.0776 89.4214 48.9701 89.6963 48.7552C89.9712 48.5095 90.1087 48.2025 90.1087 47.834V41.0103C90.1087 40.7342 90.3325 40.5103 90.6087 40.5103H97.2603C97.5364 40.5103 97.7603 40.7342 97.7603 41.0103V48.2485ZM85.6145 74.7794C85.3383 74.7794 85.1145 74.5556 85.1145 74.2794V69.1073C85.1145 68.8312 85.3383 68.6073 85.6145 68.6073H90.9374C91.2135 68.6073 91.4374 68.8312 91.4374 69.1073V74.2794C91.4374 74.5556 91.2135 74.7794 90.9374 74.7794H85.6145ZM88.1843 66.9491V60.7309H94.5112C94.7873 60.7309 95.0112 60.9548 95.0112 61.2309V66.4491C95.0112 66.7253 94.7873 66.9491 94.5112 66.9491H88.1843ZM82.0407 66.9491C81.7645 66.9491 81.5407 66.7253 81.5407 66.4491V61.2309C81.5407 60.9548 81.7645 60.7309 82.0407 60.7309H88.3676V66.9491H82.0407Z" fill="white"/>
</g>
<g filter="url(#filter1_d_3403_50218)">
<path d="M4.92944 19.1435C4.92944 18.5912 5.37716 18.1435 5.92944 18.1435H11.9032V12.2618C11.9032 11.7096 12.3509 11.2618 12.9032 11.2618H18.7194C19.2716 11.2618 19.7194 11.7096 19.7194 12.2618V18.1435H25.6931C26.2454 18.1435 26.6931 18.5912 26.6931 19.1435V25.259C26.6931 25.8113 26.2454 26.259 25.6931 26.259H19.7194V32.1406C19.7194 32.6929 19.2716 33.1406 18.7194 33.1406H12.9032C12.3509 33.1406 11.9032 32.6929 11.9032 32.1406V26.259H5.92944C5.37716 26.259 4.92944 25.8113 4.92944 25.259V19.1435Z" fill="white"/>
</g>
<g filter="url(#filter2_d_3403_50218)">
<path d="M87.1844 23.7442C87.5678 23.7442 87.8202 23.3228 87.6908 22.9619C87.6 22.7085 87.5191 22.4319 87.4481 22.1321C87.3259 21.4872 87.2648 20.827 87.2648 20.1515C87.2648 18.3705 87.6925 16.7584 88.5477 15.3151C89.403 13.8719 90.5637 12.7357 92.0299 11.9066C93.5266 11.0468 95.1608 10.6169 96.9325 10.6169C98.7957 10.6169 100.445 11.0161 101.881 11.8145C103.316 12.5822 104.431 13.6877 105.226 15.1309C106.02 16.5434 106.417 18.1402 106.417 19.9212C106.417 20.6275 106.325 21.3184 106.142 21.9939C106.065 22.3324 105.97 22.6477 105.855 22.9399C105.711 23.3049 105.962 23.7442 106.354 23.7442H109.349C109.655 23.7442 109.807 25.126 109.807 27.8897C109.807 30.6226 109.655 31.9891 109.349 31.9891H103.026C101.438 31.9891 100.155 31.9123 99.1776 31.7588C98.3287 31.6254 97.6066 31.4111 97.0112 31.1156C96.8471 31.0343 96.6531 31.0374 96.49 31.1207C95.9638 31.3891 95.2713 31.6018 94.4125 31.7588C93.435 31.9123 92.2437 31.9891 90.8386 31.9891H79.0634C76.2226 31.9891 74.0386 31.2214 72.5114 29.686C70.9841 28.12 70.2205 25.8937 70.2205 23.0072V15.6769C70.2205 15.4008 70.4443 15.1769 70.7205 15.1769H77.5554C77.8315 15.1769 78.0554 15.4008 78.0554 15.6769V21.9479C78.0554 22.5313 78.1776 22.9765 78.4219 23.2836C78.6968 23.5907 79.1397 23.7442 79.7506 23.7442H87.1844ZM96.7127 23.6107C96.8485 23.6979 97.0206 23.7063 97.1629 23.63C97.7278 23.3272 98.1855 22.9046 98.5361 22.3624C98.9332 21.7176 99.1317 21.1034 99.1317 20.52C99.1317 19.8137 98.9332 19.2763 98.5361 18.9079C98.1696 18.5087 97.635 18.3091 96.9325 18.3091C96.2605 18.3091 95.7259 18.5087 95.3288 18.9079C94.9623 19.307 94.779 19.8444 94.779 20.52C94.779 21.1341 94.9776 21.7329 95.3746 22.3163C95.7254 22.8316 96.1714 23.2631 96.7127 23.6107ZM93.4463 7.43876C93.1701 7.43876 92.9463 7.2149 92.9463 6.93876V1.72058C92.9463 1.44444 93.1701 1.22058 93.4463 1.22058H100.419C100.695 1.22058 100.919 1.44444 100.919 1.72058V6.93876C100.919 7.21491 100.695 7.43876 100.419 7.43876H93.4463Z" fill="white"/>
<path d="M113.718 23.7442C114.176 23.7442 114.527 23.6521 114.771 23.4679C115.016 23.2529 115.138 22.9458 115.138 22.5466V15.6769C115.138 15.4008 115.362 15.1769 115.638 15.1769H122.427C122.703 15.1769 122.927 15.4008 122.927 15.6769V22.4545C122.927 22.8844 123.034 23.2068 123.248 23.4218C123.492 23.6367 123.859 23.7442 124.347 23.7442H125.539C125.844 23.7442 125.997 25.126 125.997 27.8897C125.997 30.6226 125.844 31.9891 125.539 31.9891H123.981C122.851 31.9891 121.843 31.8509 120.957 31.5745C120.3 31.3386 119.733 31.012 119.256 30.5948C119.028 30.3954 118.676 30.4 118.452 30.6045C117.979 31.0377 117.424 31.3611 116.787 31.5745C115.993 31.8509 114.97 31.9891 113.718 31.9891H109.365C109.059 31.9891 108.907 30.6226 108.907 27.8897C108.907 26.1394 108.953 25.0186 109.044 24.5272C109.136 24.0052 109.243 23.7442 109.365 23.7442H113.718ZM112.16 41.6157V35.3976H118.487C118.763 35.3976 118.987 35.6214 118.987 35.8976V41.1157C118.987 41.3919 118.763 41.6157 118.487 41.6157H112.16ZM106.016 41.6157C105.74 41.6157 105.516 41.3919 105.516 41.1157V35.8976C105.516 35.6214 105.74 35.3976 106.016 35.3976H112.343V41.6157H106.016Z" fill="white"/>
<path d="M128.239 23.7442C128.61 23.7442 128.859 23.3494 128.741 22.9977C128.652 22.7346 128.57 22.4461 128.496 22.1321C128.374 21.4872 128.313 20.827 128.313 20.1515C128.313 18.3705 128.725 16.7584 129.55 15.3151C130.405 13.8719 131.566 12.7357 133.032 11.9066C134.529 11.0468 136.163 10.6169 137.934 10.6169C139.828 10.6169 141.478 11.0161 142.883 11.8145C144.318 12.5822 145.433 13.6877 146.227 15.1309C147.052 16.5434 147.465 18.1402 147.465 19.9212C147.465 20.6275 147.373 21.3184 147.19 21.9939C147.097 22.3341 146.99 22.6509 146.866 22.9444C146.714 23.306 146.964 23.7442 147.356 23.7442H150.397C150.519 23.7442 150.626 24.0052 150.718 24.5272C150.809 25.0186 150.855 26.1394 150.855 27.8897C150.855 29.64 150.809 30.7608 150.718 31.2521C150.626 31.7434 150.519 31.9891 150.397 31.9891H144.028C142.44 31.9891 141.157 31.9123 140.179 31.7588C139.354 31.6249 138.645 31.4095 138.052 31.1124C137.892 31.0323 137.703 31.033 137.542 31.1123C136.991 31.3847 136.282 31.6002 135.414 31.7588C134.437 31.9123 133.261 31.9891 131.886 31.9891H125.518C125.212 31.9891 125.059 30.6226 125.059 27.8897C125.059 25.126 125.212 23.7442 125.518 23.7442H128.239ZM137.934 18.3091C137.262 18.3091 136.728 18.5087 136.331 18.9079C135.964 19.307 135.781 19.8444 135.781 20.52C135.781 21.1341 135.979 21.7329 136.377 22.3163C136.727 22.8316 137.173 23.2631 137.715 23.6107C137.85 23.6979 138.023 23.7063 138.165 23.63C138.73 23.3272 139.187 22.9046 139.538 22.3624C139.935 21.7176 140.134 21.1034 140.134 20.52C140.134 19.8137 139.935 19.2763 139.538 18.9079C139.171 18.5087 138.637 18.3091 137.934 18.3091ZM134.448 7.43876C134.172 7.43876 133.948 7.2149 133.948 6.93876V1.72058C133.948 1.44444 134.172 1.22058 134.448 1.22058H141.421C141.697 1.22058 141.921 1.44444 141.921 1.72058V6.93876C141.921 7.21491 141.697 7.43876 141.421 7.43876H134.448Z" fill="white"/>
<path d="M154.067 11.6265C154.09 11.368 154.306 11.1697 154.565 11.1697H165.699C167.257 11.1697 168.585 11.4614 169.685 12.0448C170.815 12.6283 171.823 13.6723 172.709 15.1769C173.558 16.5892 174.322 18.5793 175.003 21.1472C175.057 21.3509 174.975 21.5663 174.801 21.6849L173.032 22.8908C172.731 23.096 172.772 23.4914 173.131 23.5537C173.143 23.5558 173.155 23.5579 173.167 23.56C173.534 23.6214 173.9 23.6674 174.267 23.6982C174.633 23.7289 174.954 23.7442 175.229 23.7442H177.978C178.283 23.7442 178.436 25.126 178.436 27.8897C178.436 29.6707 178.39 30.8068 178.299 31.2982C178.207 31.7588 178.1 31.9891 177.978 31.9891H174.313C173.243 31.9891 172.266 31.8509 171.38 31.5745C170.525 31.2982 169.746 30.8836 169.043 30.3309C168.451 29.8388 167.913 29.2265 167.429 28.4941C167.277 28.2649 166.974 28.186 166.737 28.3249L165.515 29.0412C163.713 30.1159 161.926 30.8836 160.155 31.3442C158.383 31.7741 156.184 31.9891 153.557 31.9891H150.395C150.09 31.9891 149.937 30.6226 149.937 27.8897C149.937 26.1394 149.983 25.0186 150.075 24.5272C150.166 24.0052 150.273 23.7442 150.395 23.7442H153.969C156.23 23.7442 158.139 23.606 159.697 23.3297C161.254 23.0226 162.904 22.4392 164.645 21.5794L165.627 21.0348C165.83 20.9221 165.932 20.6827 165.849 20.4658C165.679 20.0209 165.461 19.7012 165.195 19.5066C164.859 19.2303 164.385 19.0921 163.774 19.0921H153.965C153.672 19.0921 153.441 18.841 153.467 18.5489L154.067 11.6265ZM158.73 7.53089C158.454 7.53089 158.23 7.30703 158.23 7.03089V1.8127C158.23 1.53656 158.454 1.3127 158.73 1.3127H165.703C165.979 1.3127 166.203 1.53656 166.203 1.8127V7.03089C166.203 7.30703 165.979 7.53089 165.703 7.53089H158.73Z" fill="white"/>
<path d="M191.108 22.9151C191.108 25.7095 190.283 27.9204 188.634 29.5479C187.015 31.1753 184.815 31.9891 182.036 31.9891H177.958C177.653 31.9891 177.5 30.6226 177.5 27.8897C177.5 26.1394 177.546 25.0186 177.637 24.5272C177.729 24.0052 177.836 23.7442 177.958 23.7442H182.036C182.433 23.7442 182.769 23.6367 183.044 23.4218C183.319 23.1761 183.456 22.8691 183.456 22.5006V15.6769C183.456 15.4008 183.68 15.1769 183.956 15.1769H190.608C190.884 15.1769 191.108 15.4008 191.108 15.6769V22.9151ZM185.243 11.7685V5.55028H191.57C191.846 5.55028 192.07 5.77414 192.07 6.05028V11.2685C192.07 11.5446 191.846 11.7685 191.57 11.7685H185.243ZM179.099 11.7685C178.823 11.7685 178.599 11.5446 178.599 11.2685V6.05028C178.599 5.77414 178.823 5.55028 179.099 5.55028H185.426V11.7685H179.099Z" fill="white"/>
</g>
<defs>
<filter id="filter0_d_3403_50218" x="4.10449" y="27.7976" width="97.6558" height="55.9818" filterUnits="userSpaceOnUse" color-interpolation-filters="sRGB">
<feFlood flood-opacity="0" result="BackgroundImageFix"/>
<feColorMatrix in="SourceAlpha" type="matrix" values="0 0 0 0 0 0 0 0 0 0 0 0 0 0 0 0 0 0 127 0" result="hardAlpha"/>
<feOffset dy="5"/>
<feGaussianBlur stdDeviation="2"/>
<feComposite in2="hardAlpha" operator="out"/>
<feColorMatrix type="matrix" values="0 0 0 0 0 0 0 0 0 0 0 0 0 0 0 0 0 0 0.25 0"/>
<feBlend mode="normal" in2="BackgroundImageFix" result="effect1_dropShadow_3403_50218"/>
<feBlend mode="normal" in="SourceGraphic" in2="effect1_dropShadow_3403_50218" result="shape"/>
</filter>
<filter id="filter1_d_3403_50218" x="0.929443" y="11.2618" width="29.7637" height="30.8788" filterUnits="userSpaceOnUse" color-interpolation-filters="sRGB">
<feFlood flood-opacity="0" result="BackgroundImageFix"/>
<feColorMatrix in="SourceAlpha" type="matrix" values="0 0 0 0 0 0 0 0 0 0 0 0 0 0 0 0 0 0 127 0" result="hardAlpha"/>
<feOffset dy="5"/>
<feGaussianBlur stdDeviation="2"/>
<feComposite in2="hardAlpha" operator="out"/>
<feColorMatrix type="matrix" values="0 0 0 0 0 0 0 0 0 0 0 0 0 0 0 0 0 0 0.25 0"/>
<feBlend mode="normal" in2="BackgroundImageFix" result="effect1_dropShadow_3403_50218"/>
<feBlend mode="normal" in="SourceGraphic" in2="effect1_dropShadow_3403_50218" result="shape"/>
</filter>
<filter id="filter2_d_3403_50218" x="65.2205" y="1.22058" width="131.85" height="51.3951" filterUnits="userSpaceOnUse" color-interpolation-filters="sRGB">
<feFlood flood-opacity="0" result="BackgroundImageFix"/>
<feColorMatrix in="SourceAlpha" type="matrix" values="0 0 0 0 0 0 0 0 0 0 0 0 0 0 0 0 0 0 127 0" result="hardAlpha"/>
<feOffset dy="6"/>
<feGaussianBlur stdDeviation="2.5"/>
<feComposite in2="hardAlpha" operator="out"/>
<feColorMatrix type="matrix" values="0 0 0 0 0 0 0 0 0 0 0 0 0 0 0 0 0 0 0.25 0"/>
<feBlend mode="normal" in2="BackgroundImageFix" result="effect1_dropShadow_3403_50218"/>
<feBlend mode="normal" in="SourceGraphic" in2="effect1_dropShadow_3403_50218" result="shape"/>
</filter>
</defs>
</svg>
